# xmcd
# 
# Track frame offsets:
#   150
#   17310
#   35363
#   54206
#   71141
#   86108
#   104755
#   124006
#   140736
#   156772
#   173178
#   188647
#   202363
# 
# Disc length: 2898 seconds
# 
# Revision: 1
# Processed by: cddbd v1.5.2PL0 Copyright (c) Steve Scherf et al.
# Submitted via: VOLTOCDX V1.0.22 
# 
DISCID=b80b500d
DTITLE=Trisha Yearwood - Heaven, Heartache And The Power Of Love
DYEAR=2007
DGENRE=country
TTITLE0=Heaven, Heartache And The Power Of Love
TTITLE1=This Is Me You're Talking To
TTITLE2=They Call It Falling For A Reason
TTITLE3=Nothin' 'Bout Memphis
TTITLE4=We Tried
TTITLE5=Let The Wind Chase You
TTITLE6=The Dreaming Fields
TTITLE7=Cowboys Are My Weakness
TTITLE8=Help Me
TTITLE9=Not A Bad Thing
TTITLE10=Nothin' About You Is Good For Me
TTITLE11=Drown Me
TTITLE12=Sing You Back To Me
EXTD=
EXTT0=
EXTT1=
EXTT2=
EXTT3=
EXTT4=
EXTT5=
EXTT6=
EXTT7=
EXTT8=
EXTT9=
EXTT10=
EXTT11=
EXTT12=
PLAYORDER=
